<svg viewBox="10 15 210 230" xmlns="http://www.w3.org/2000/svg" fill-rule="evenodd" clip-rule="evenodd">
  <path fill="#e8772e" fill-rule="nonzero" d="M45.47 56.98l59.22 -34.19 19.74 11.4 -59.22 34.19 -19.74 -11.4zm78.96 45.58l-39.48 -22.79 78.95 -45.59 -59.22 -34.19 -98.7 56.98 98.7 56.98 19.74 -11.4z"/>
  <path fill="#e8772e" fill-rule="nonzero" d="M19.74 169.95l0.01 -68.38 51.05 29.48 8.17 14.15 -0.01 49.51c0,0 -8.18,4.71 -8.17,4.72l-51.05 -29.47zm78.95 45.59l0.01 -68.38c0,0 -19.72,-34.18 -19.73,-34.19l-78.95 -45.6 -0.01 113.97c0,0 78.94,45.59 78.95,45.59l19.74 -11.39z"/>
  <polygon fill="#e8772e" fill-rule="nonzero" points="209.38,67.36 197.12,60.85 203.05,57.46 167.31,52.99 171.41,75.59 177.27,72.23 189.64,78.75 189.63,78.75 189.63,114.9 181.46,129.06 138.59,153.81 138.57,153.8 124.84,168.34 120.81,175.25 120.31,176.04 110.68,192.72 110.68,238.31 130.42,226.91 130.42,190.76 138.59,176.61 181.46,151.85 181.47,151.87 181.53,151.78 199.51,130.04 199.51,130.04 209.38,112.94"/>
  <polygon fill="#e8772e" fill-rule="nonzero" points="122.21,166.12 135.51,152.03 130.42,149.09 130.42,112.94 110.68,124.34 110.68,169.93 117.58,173.92 117.87,173.46"/>
  <polygon fill="#e8772e" fill-rule="nonzero" points="184.49,153.6 189.64,156.58 189.64,192.72 209.37,181.33 209.37,135.74 202.53,131.79"/>
</svg>
